<svg width="32" height="30" viewBox="0 0 32 30" fill="none" xmlns="http://www.w3.org/2000/svg">
<path opacity="0.8" d="M15.899 2.69317C11.9023 -0.104489 7.85004 12.1007 7.21531 14.178C5.1585 20.9094 14.187 11.128 15.4321 9.88286C18.7352 6.5798 20.8329 -0.560032 15.0119 5.26091C13.4607 6.8121 4.80638 19.2295 9.59632 20.2939C13.9486 21.2611 22.4239 10.8697 23.7423 7.64192C26.5483 0.77205 19.8446 3.75938 17.2996 6.3347C13.6748 10.0026 10.2855 13.7465 8.70928 18.7533C8.26351 20.1692 8.60309 22.3617 10.5767 21.6478C16.7931 19.3993 25.9832 14.7613 25.9832 7.26843C25.9832 2.79496 19.666 6.97875 18.3267 7.96872C16.8613 9.05184 3.41034 23.5817 8.94271 25.7095C13.6041 27.5024 26.7021 18.1217 28.4576 14.3181C31.3778 7.99097 25.6656 8.18814 22.0616 11.3301C18.3597 14.5574 14.4815 18.9574 13.518 23.9354C13.3318 24.8972 13.0109 28.1088 14.8719 27.717C20.6175 26.5074 30.6068 20.1765 30.1383 13.6178C29.2953 1.81628 12.1434 15.968 13.4246 23.6553C13.958 26.8559 20.3305 22.2346 21.1278 21.181C23.4442 18.1201 23.2163 10.5899 18.8869 9.22925C13.599 7.56735 10.2811 11.1263 10.0165 16.4189C9.75849 21.579 12.5278 20.1794 15.899 17.8195C19.3086 15.4328 20.203 10.9051 15.9457 9.04251C10.8088 6.79515 3.55629 14.6973 2.1265 18.9867C0.812216 22.9296 4.37358 23.4358 7.40206 22.2081C14.1371 19.4777 25.0231 15.199 20.5209 6.19464C14.8527 -5.14187 -0.234888 10.6476 3.29366 19.7804C5.68365 25.9662 14.7064 16.6624 16.5526 14.2714C17.3361 13.2566 22.0336 0.632613 17.8598 3.2534C13.0936 6.24611 6.66407 16.208 8.98939 22.0213C9.96408 24.458 14.2969 19.6382 15.0586 18.4731C15.3357 18.0494 16.5678 15.2717 14.8719 15.8587C12.6003 16.645 10.7306 20.1631 9.73638 22.1147C7.73477 26.0437 7.85014 26.9925 11.6972 26.2231" stroke="#FF9F41" stroke-width="2.61676" stroke-linecap="round"/>
<path d="M10.3307 11.7612C11.241 12.4692 11.5741 9.56811 10.8113 9.59863C9.45806 9.65276 9.44202 12.2177 9.6399 12.0315C10.3391 11.3735 10.8714 9.4151 10.8714 11.2205C10.8714 12.3741 11.334 10.0248 10.8714 10.9502" stroke="#27272A" stroke-width="2.61676" stroke-linecap="round"/>
<path d="M20.1301 10.1516C21.0403 10.8596 21.3735 7.9585 20.6106 7.98901C19.2574 8.04314 19.2414 10.6081 19.4393 10.4219C20.1384 9.76385 20.6707 7.80548 20.6707 9.61093C20.6707 10.7645 21.1334 8.41523 20.6707 9.34061" stroke="#27272A" stroke-width="2.61676" stroke-linecap="round"/>
<path d="M11.0538 17.2032C11.5678 17.139 12.5605 16.0033 13.0952 15.7062C13.9177 15.2493 14.6256 15.2979 15.5449 15.2979C16.9149 15.2979 18.9472 16.4214 18.9472 18.0198" stroke="#27272A" stroke-width="2.61676" stroke-linecap="round"/>
</svg>
