<svg width="375" height="694" viewBox="0 0 375 694" fill="none" xmlns="http://www.w3.org/2000/svg">
<g opacity="0.8" clip-path="url(#clip0_116_439)">
<path d="M286.957 10.9676L281.475 13.4065C280.97 13.6309 280.743 14.222 280.968 14.7266L283.406 20.2086C283.631 20.7132 284.222 20.9402 284.727 20.7157L290.209 18.2769C290.713 18.0524 290.94 17.4614 290.716 16.9568L288.277 11.4748C288.052 10.9702 287.461 10.7431 286.957 10.9676Z" fill="#FFC400"/>
<path d="M256.957 625.968L251.475 628.406C250.97 628.631 250.743 629.222 250.968 629.727L253.406 635.208C253.631 635.713 254.222 635.94 254.727 635.716L260.209 633.277C260.713 633.052 260.94 632.461 260.716 631.957L258.277 626.475C258.052 625.97 257.461 625.743 256.957 625.968Z" fill="#FFC400"/>
<path d="M303.957 651.968L298.475 654.406C297.97 654.631 297.743 655.222 297.968 655.727L300.406 661.208C300.631 661.713 301.222 661.94 301.727 661.716L307.209 659.277C307.713 659.052 307.94 658.461 307.716 657.957L305.277 652.475C305.052 651.97 304.461 651.743 303.957 651.968Z" fill="#8352FA"/>
<path d="M241.242 18.6199L232.435 22.5381C231.624 22.8987 231.259 23.8483 231.62 24.6589L235.538 33.466C235.899 34.2767 236.848 34.6415 237.659 34.2808L246.466 30.3627C247.277 30.002 247.642 29.0525 247.281 28.2418L243.363 19.4348C243.002 18.6241 242.053 18.2593 241.242 18.6199Z" fill="#FF424E"/>
<circle cx="44" cy="70" r="5" fill="#EBEBF0"/>
<circle cx="375" cy="335" r="8" fill="#8352FA"/>
<circle cx="4.5" cy="4.5" r="4.5" transform="matrix(1 0 0 -1 354 217)" fill="#C4C4CF"/>
<circle cx="95.5" cy="23.5" r="7.5" fill="#733DF2"/>
<path d="M172 665C172 667.209 173.791 669 176 669C178.209 669 180 667.209 180 665C180 662.791 178.209 661 176 661C173.791 661 172 662.791 172 665Z" stroke="#DDDDE3" stroke-width="2" stroke-linecap="round" stroke-linejoin="round"/>
<path d="M326.266 584.6C326.266 587.435 328.565 589.734 331.4 589.734C334.235 589.734 336.533 587.435 336.533 584.6C336.533 581.765 334.235 579.467 331.4 579.467C328.565 579.467 326.266 581.765 326.266 584.6Z" stroke="#DDDDE3" stroke-width="2.56659" stroke-linecap="round" stroke-linejoin="round"/>
<path d="M8.26639 187.4C8.26639 190.235 10.5646 192.533 13.3996 192.533C16.2346 192.533 18.5328 190.235 18.5328 187.4C18.5328 184.565 16.2346 182.266 13.3996 182.266C10.5646 182.266 8.26639 184.565 8.26639 187.4Z" stroke="#074183" stroke-width="2.56659" stroke-linecap="round" stroke-linejoin="round"/>
<path d="M295 636L302.767 624" stroke="#78DA90" stroke-width="5" stroke-linecap="round"/>
<path d="M360 370L389 359" stroke="#04592C" stroke-width="8" stroke-linecap="round"/>
<path d="M90 652.719L104.528 633" stroke="#78DA90" stroke-width="8" stroke-linecap="round"/>
<path d="M24 590.248L39.1463 571" stroke="#FF424E" stroke-width="10" stroke-linecap="round"/>
<path d="M350 67L367 50" stroke="#BFA4FE" stroke-width="6" stroke-linecap="round"/>
<path d="M21 129L28 113" stroke="#A6A6B0" stroke-width="6" stroke-linecap="round"/>
<path d="M48.6007 662.481L24 639" stroke="#FFB700" stroke-width="8" stroke-linecap="round"/>
<path d="M375.898 661.579L344 630" stroke="#5CB3FF" stroke-width="10" stroke-linecap="round"/>
<path d="M399.098 269.674L363 253" stroke="#0D5BB5" stroke-width="4" stroke-linecap="round"/>
<path d="M188.325 28.3027L162 12" stroke="#FF99A0" stroke-width="10" stroke-linecap="round"/>
<path d="M10.3247 89.3027L-16 73" stroke="#FF424E" stroke-width="6" stroke-linecap="round"/>
<path d="M77.2693 611.222L71 592" stroke="#FF99A0" stroke-width="5" stroke-linecap="round"/>
<path d="M357.269 588.222L351 569" stroke="#0B74E5" stroke-width="5" stroke-linecap="round"/>
<path d="M21.2693 38.222L-9.29925e-07 -13" stroke="#E59900" stroke-width="12" stroke-linecap="round"/>
<path d="M147.882 636.126L131 625" stroke="#FF99A0" stroke-width="5" stroke-linecap="round"/>
<path d="M311.882 54.1261L295 43" stroke="#64646D" stroke-width="5" stroke-linecap="round"/>
<path d="M20.7145 470.596L17.5547 450.626" stroke="#C4C4CF" stroke-width="5" stroke-linecap="round"/>
<path d="M80.7435 49.8354L66 36" stroke="#1A94FF" stroke-width="5" stroke-linecap="round"/>
<path d="M18.0024 277.937L11.5358 280.814C10.9406 281.079 10.6727 281.776 10.9375 282.372L13.8144 288.838C14.0792 289.434 14.7764 289.701 15.3717 289.437L21.8383 286.56C22.4335 286.295 22.7014 285.598 22.4366 285.002L19.5597 278.536C19.2949 277.941 18.5977 277.673 18.0024 277.937Z" fill="#A079FC"/>
<path d="M340.687 11.3207L333.029 14.7276C332.324 15.0412 332.007 15.8668 332.321 16.5717L335.728 24.2295C336.041 24.9344 336.867 25.2516 337.572 24.938L345.229 21.5312C345.934 21.2176 346.252 20.3919 345.938 19.6871L342.531 12.0292C342.218 11.3244 341.392 11.0072 340.687 11.3207Z" fill="#6028E0"/>
<path d="M2.21418 316.206L-3.35103 318.682C-3.86329 318.91 -4.09382 319.51 -3.86592 320.022L-1.39004 325.587C-1.16214 326.099 -0.562117 326.33 -0.0498539 326.102L5.51535 323.626C6.02762 323.398 6.25814 322.798 6.03024 322.286L3.55436 316.721C3.32646 316.209 2.72644 315.978 2.21418 316.206Z" fill="#FFC400"/>
<path d="M229.179 642.515L213.926 649.301C212.522 649.925 211.891 651.57 212.515 652.974L219.301 668.226C219.925 669.63 221.57 670.262 222.974 669.638L238.226 662.852C239.63 662.227 240.262 660.583 239.638 659.179L232.852 643.926C232.227 642.522 230.583 641.891 229.179 642.515Z" fill="#FF424E"/>
<path d="M30.4935 517.929L20.9399 515.399C20.0605 515.166 19.1588 515.69 18.9258 516.569L16.395 526.123C16.1621 527.002 16.6861 527.904 17.5655 528.137L27.1191 530.668C27.9985 530.9 28.9002 530.376 29.1331 529.497L31.6639 519.943C31.8969 519.064 31.3729 518.162 30.4935 517.929Z" fill="#0D5BB5"/>
<path d="M362.796 161.168L376.242 140.697" stroke="#2DC26D" stroke-width="8" stroke-linecap="round"/>
<path d="M-4.47601 413.886L14.6298 398.56" stroke="#00A881" stroke-width="8" stroke-linecap="round"/>
<path d="M-5.87927 249.869L16.033 238.926" stroke="#FF99A0" stroke-width="5" stroke-linecap="round"/>
<path d="M364.287 455.604L386.819 446" stroke="#FF707A" stroke-width="8" stroke-linecap="round"/>
<path d="M355 523L389 523" stroke="#FFD530" stroke-width="12" stroke-linecap="round"/>
</g>
<defs>
<clipPath id="clip0_116_439">
<rect width="376" height="694" fill="white"/>
</clipPath>
</defs>
</svg>
