<svg width="266" height="170" viewBox="0 0 266 170" fill="none" xmlns="http://www.w3.org/2000/svg">
<path d="M38.1998 118.002C37.7425 119.413 37.0374 120.441 36.0847 121.089C35.132 121.737 34.1411 122.004 33.1122 121.89C32.0832 121.737 31.2067 121.223 30.4827 120.346C31.1305 119.851 31.3211 119.317 31.0543 118.746C30.8256 118.136 30.2349 117.64 29.2822 117.259C28.3295 116.84 27.11 116.688 25.6237 116.802C24.0994 116.878 22.5559 117.374 20.9934 118.288C19.4691 119.203 18.1924 120.518 17.1635 122.233C16.1345 123.948 15.5629 126.082 15.4485 128.635C15.3342 131.265 15.601 133.399 16.2488 135.037C16.8967 136.676 17.697 137.934 18.6497 138.81C19.6406 139.649 20.6314 140.258 21.6222 140.639C22.6131 140.982 23.4134 141.211 24.0231 141.325C24.8234 141.478 25.738 141.592 26.767 141.668C27.8341 141.706 28.9011 141.63 29.9682 141.44C31.0352 141.249 31.9499 140.925 32.712 140.468C33.398 140.049 34.2555 139.496 35.2844 138.81C36.3134 138.086 37.3042 137.286 38.2569 136.409C39.2097 135.533 39.9147 134.637 40.372 133.723C41.6677 134.599 42.468 135.838 42.7729 137.438C43.1159 139.039 42.9825 140.754 42.3727 142.583C41.763 144.412 40.6959 146.146 39.1716 147.785C37.6853 149.385 35.7417 150.7 33.3408 151.729C30.94 152.72 28.1008 153.177 24.8234 153.101C23.2991 153.063 21.546 152.777 19.5643 152.244C17.6208 151.71 15.6581 150.872 13.6765 149.728C11.6948 148.547 9.88459 147.004 8.24589 145.098C6.64531 143.155 5.42581 140.754 4.5874 137.896C3.749 135.037 3.52035 131.665 3.90144 127.778C4.24442 124.081 5.15904 120.899 6.64531 118.231C8.16968 115.564 10.018 113.391 12.1902 111.714C14.4005 110 16.7252 108.723 19.1642 107.884C21.6413 107.008 24.0041 106.551 26.2525 106.513C28.501 106.436 30.4445 106.779 32.0832 107.542C33.7601 108.304 35.1129 109.295 36.1419 110.514C37.1708 111.695 37.8568 112.972 38.1998 114.344C38.5809 115.678 38.5809 116.897 38.1998 118.002ZM91.6266 127.778C92.0077 131.322 91.8362 134.466 91.1121 137.21C90.4262 139.953 89.34 142.335 87.8538 144.355C86.4056 146.337 84.6907 147.975 82.709 149.271C80.7273 150.529 78.6123 151.481 76.3638 152.129C74.1535 152.739 71.9622 153.044 69.79 153.044C67.6178 153.044 65.4074 152.758 63.159 152.187C60.9105 151.615 58.7764 150.719 56.7566 149.5C54.7749 148.28 53.0219 146.699 51.4975 144.755C50.0113 142.812 48.9061 140.506 48.182 137.838C47.458 135.133 47.2865 132.008 47.6676 128.463C47.9724 125.415 48.7346 122.576 49.9541 119.946C51.1736 117.278 52.7551 114.973 54.6987 113.029C56.6423 111.048 58.8717 109.523 61.3869 108.456C63.9021 107.351 66.5888 106.836 69.447 106.913C69.6375 106.913 69.9234 106.779 70.3045 106.513C70.6856 106.208 71.2 105.922 71.8479 105.655C72.4957 105.388 73.277 105.293 74.1916 105.369C75.9065 105.522 77.7167 106.227 79.6222 107.484C81.5276 108.742 83.3378 110.419 85.0527 112.515C86.7677 114.573 88.2158 116.916 89.3972 119.546C90.5786 122.175 91.3217 124.919 91.6266 127.778ZM69.9615 142.469C71.2953 142.431 72.5529 142.24 73.7343 141.897C74.9538 141.554 76.0399 140.925 76.9926 140.011C77.9454 139.096 78.7076 137.8 79.2792 136.123C79.8889 134.447 80.2129 132.293 80.251 129.664C80.2891 127.835 79.8889 126.063 79.0505 124.348C78.2121 122.633 77.0498 121.185 75.5635 120.003C74.0773 118.784 72.3814 118.079 70.4759 117.888C68.418 117.66 66.665 117.869 65.2169 118.517C63.7687 119.127 62.5683 120.041 61.6155 121.261C60.7009 122.442 59.9959 123.776 59.5005 125.262C59.0051 126.749 58.7002 128.254 58.5859 129.778C58.3572 132.408 58.6049 134.561 59.329 136.238C60.0531 137.915 61.0248 139.21 62.2443 140.125C63.4638 141.04 64.7596 141.668 66.1315 142.011C67.5415 142.354 68.8182 142.507 69.9615 142.469ZM144.987 146.299C145.025 147.061 145.121 147.804 145.273 148.528C145.464 149.252 145.692 149.786 145.959 150.129C145.616 150.472 145.083 150.872 144.359 151.329C143.673 151.786 142.872 152.148 141.958 152.415C141.081 152.72 140.147 152.853 139.157 152.815C137.67 152.739 136.47 152.11 135.555 150.929C134.679 149.748 134.221 148.28 134.183 146.527C134.183 146.184 134.183 145.556 134.183 144.641C134.183 143.688 134.183 142.678 134.183 141.611C134.183 140.544 134.183 139.668 134.183 138.982C134.183 138.334 134.012 137.705 133.669 137.095C133.364 136.485 133.002 136.123 132.583 136.009C132.011 135.819 131.535 136.162 131.154 137.038C131.077 137.229 130.83 137.705 130.411 138.467C129.991 139.191 129.515 140.049 128.981 141.04C128.486 142.03 128.01 143.021 127.552 144.012C127.133 145.003 126.847 145.86 126.695 146.584C126.542 147.27 126.638 147.69 126.981 147.842C126.828 148.223 126.542 148.776 126.123 149.5C125.742 150.224 125.094 150.853 124.18 151.386C123.303 151.882 122.046 152.072 120.407 151.958C119.53 151.882 118.406 151.348 117.034 150.357C115.662 149.366 114.347 147.556 113.09 144.927C111.908 142.411 110.937 140.716 110.174 139.839C109.45 138.924 108.917 138.505 108.574 138.582C108.269 138.62 108.021 138.829 107.831 139.21C107.678 139.591 107.526 140.125 107.373 140.811C107.297 141.154 107.259 141.726 107.259 142.526C107.259 143.326 107.297 144.222 107.373 145.213C107.45 146.203 107.583 147.137 107.774 148.014C108.002 148.89 108.288 149.557 108.631 150.014C108.326 150.205 107.774 150.529 106.973 150.986C106.211 151.443 105.335 151.863 104.344 152.244C103.391 152.587 102.457 152.758 101.543 152.758C100.171 152.72 99.0275 152.358 98.1129 151.672C97.1983 150.948 96.6457 149.538 96.4552 147.442C96.417 147.099 96.398 146.127 96.398 144.527C96.398 142.926 96.398 140.906 96.398 138.467C96.398 136.028 96.398 133.418 96.398 130.636C96.398 127.816 96.398 125.034 96.398 122.29C96.398 119.546 96.398 117.031 96.398 114.744C96.4361 112.458 96.4552 110.628 96.4552 109.256C96.4552 107.884 96.4552 107.199 96.4552 107.199C96.8744 107.122 97.5794 107.103 98.5702 107.141C99.5611 107.179 100.647 107.332 101.829 107.599C103.01 107.865 104.096 108.304 105.087 108.913C106.078 109.485 106.764 110.304 107.145 111.371C107.145 111.371 107.316 111.734 107.659 112.458C108.04 113.144 108.536 114.058 109.146 115.201C109.755 116.307 110.403 117.507 111.089 118.803C111.813 120.099 112.499 121.375 113.147 122.633C113.833 123.89 114.424 124.996 114.919 125.948C115.453 126.901 115.815 127.568 116.005 127.949C116.653 129.054 117.263 129.816 117.834 130.236C118.444 130.655 119.092 130.883 119.778 130.922C121.188 130.922 122.541 129.835 123.837 127.663C124.027 127.32 124.408 126.596 124.98 125.491C125.552 124.348 126.218 122.995 126.981 121.432C127.743 119.87 128.524 118.269 129.324 116.631C130.163 114.992 130.925 113.467 131.611 112.057C132.297 110.609 132.85 109.447 133.269 108.57C133.726 107.656 133.955 107.199 133.955 107.199C134.221 107.16 134.603 107.141 135.098 107.141C135.631 107.103 136.203 107.122 136.813 107.199C137.88 107.275 139.004 107.484 140.186 107.827C141.405 108.17 142.453 108.704 143.33 109.428C144.244 110.152 144.759 111.124 144.873 112.343C144.949 112.991 145.006 114.058 145.044 115.544C145.083 116.993 145.102 118.727 145.102 120.746C145.102 122.728 145.102 124.843 145.102 127.092C145.102 129.34 145.083 131.55 145.044 133.723C145.044 135.895 145.025 137.896 144.987 139.725C144.987 141.554 144.987 143.059 144.987 144.241C144.987 145.384 144.987 146.07 144.987 146.299ZM199.137 146.299C199.175 147.061 199.27 147.804 199.423 148.528C199.613 149.252 199.842 149.786 200.108 150.129C199.766 150.472 199.232 150.872 198.508 151.329C197.822 151.786 197.022 152.148 196.107 152.415C195.231 152.72 194.297 152.853 193.306 152.815C191.82 152.739 190.619 152.11 189.705 150.929C188.828 149.748 188.371 148.28 188.333 146.527C188.333 146.184 188.333 145.556 188.333 144.641C188.333 143.688 188.333 142.678 188.333 141.611C188.333 140.544 188.333 139.668 188.333 138.982C188.333 138.334 188.161 137.705 187.818 137.095C187.513 136.485 187.151 136.123 186.732 136.009C186.161 135.819 185.684 136.162 185.303 137.038C185.227 137.229 184.979 137.705 184.56 138.467C184.141 139.191 183.664 140.049 183.131 141.04C182.635 142.03 182.159 143.021 181.702 144.012C181.283 145.003 180.997 145.86 180.844 146.584C180.692 147.27 180.787 147.69 181.13 147.842C180.978 148.223 180.692 148.776 180.273 149.5C179.892 150.224 179.244 150.853 178.329 151.386C177.453 151.882 176.195 152.072 174.556 151.958C173.68 151.882 172.555 151.348 171.184 150.357C169.812 149.366 168.497 147.556 167.239 144.927C166.058 142.411 165.086 140.716 164.324 139.839C163.6 138.924 163.066 138.505 162.723 138.582C162.418 138.62 162.171 138.829 161.98 139.21C161.828 139.591 161.675 140.125 161.523 140.811C161.447 141.154 161.409 141.726 161.409 142.526C161.409 143.326 161.447 144.222 161.523 145.213C161.599 146.203 161.732 147.137 161.923 148.014C162.152 148.89 162.437 149.557 162.78 150.014C162.476 150.205 161.923 150.529 161.123 150.986C160.361 151.443 159.484 151.863 158.493 152.244C157.54 152.587 156.607 152.758 155.692 152.758C154.32 152.72 153.177 152.358 152.262 151.672C151.348 150.948 150.795 149.538 150.605 147.442C150.566 147.099 150.547 146.127 150.547 144.527C150.547 142.926 150.547 140.906 150.547 138.467C150.547 136.028 150.547 133.418 150.547 130.636C150.547 127.816 150.547 125.034 150.547 122.29C150.547 119.546 150.547 117.031 150.547 114.744C150.585 112.458 150.605 110.628 150.605 109.256C150.605 107.884 150.605 107.199 150.605 107.199C151.024 107.122 151.729 107.103 152.72 107.141C153.71 107.179 154.797 107.332 155.978 107.599C157.159 107.865 158.245 108.304 159.236 108.913C160.227 109.485 160.913 110.304 161.294 111.371C161.294 111.371 161.466 111.734 161.809 112.458C162.19 113.144 162.685 114.058 163.295 115.201C163.905 116.307 164.553 117.507 165.239 118.803C165.963 120.099 166.649 121.375 167.296 122.633C167.982 123.89 168.573 124.996 169.068 125.948C169.602 126.901 169.964 127.568 170.155 127.949C170.802 129.054 171.412 129.816 171.984 130.236C172.594 130.655 173.241 130.883 173.927 130.922C175.337 130.922 176.69 129.835 177.986 127.663C178.177 127.32 178.558 126.596 179.129 125.491C179.701 124.348 180.368 122.995 181.13 121.432C181.892 119.87 182.674 118.269 183.474 116.631C184.312 114.992 185.074 113.467 185.76 112.057C186.446 110.609 186.999 109.447 187.418 108.57C187.875 107.656 188.104 107.199 188.104 107.199C188.371 107.16 188.752 107.141 189.247 107.141C189.781 107.103 190.353 107.122 190.962 107.199C192.029 107.275 193.154 107.484 194.335 107.827C195.554 108.17 196.602 108.704 197.479 109.428C198.394 110.152 198.908 111.124 199.022 112.343C199.099 112.991 199.156 114.058 199.194 115.544C199.232 116.993 199.251 118.727 199.251 120.746C199.251 122.728 199.251 124.843 199.251 127.092C199.251 129.34 199.232 131.55 199.194 133.723C199.194 135.895 199.175 137.896 199.137 139.725C199.137 141.554 199.137 143.059 199.137 144.241C199.137 145.384 199.137 146.07 199.137 146.299ZM212.574 152.815C210.936 152.51 209.773 151.405 209.087 149.5C208.439 147.594 208.115 145.232 208.115 142.411C208.115 142.069 208.096 141.211 208.058 139.839C208.058 138.467 208.039 136.771 208.001 134.752C208.001 132.694 207.982 130.483 207.944 128.121C207.944 125.758 207.925 123.395 207.887 121.032C207.849 118.669 207.811 116.497 207.772 114.516C207.734 112.496 207.696 110.838 207.658 109.542C207.62 108.247 207.582 107.465 207.544 107.199C208.115 107.084 208.992 107.065 210.173 107.141C211.393 107.179 212.65 107.37 213.946 107.713C215.28 108.018 216.442 108.551 217.433 109.314C218.424 110.038 218.996 111.048 219.148 112.343C219.224 112.953 219.281 114.001 219.32 115.487C219.358 116.935 219.377 118.669 219.377 120.689C219.415 122.671 219.434 124.786 219.434 127.034C219.434 129.283 219.434 131.512 219.434 133.723C219.434 135.895 219.434 137.915 219.434 139.782C219.434 141.611 219.434 143.155 219.434 144.412C219.472 145.632 219.51 146.375 219.548 146.642C219.624 147.442 219.777 148.033 220.006 148.414C220.234 148.757 220.482 149.195 220.749 149.728C219.796 150.757 218.615 151.596 217.205 152.244C215.794 152.892 214.251 153.082 212.574 152.815ZM261.938 106.284C262.395 106.665 262.719 107.408 262.91 108.513C263.138 109.618 263.234 110.819 263.196 112.115C263.157 113.372 262.967 114.516 262.624 115.544C262.281 116.535 261.786 117.126 261.138 117.317C260.871 117.393 260.318 117.507 259.48 117.66C258.68 117.774 257.936 117.926 257.251 118.117C256.603 118.307 255.745 118.631 254.678 119.089C253.611 119.546 252.696 120.213 251.934 121.089C251.325 121.813 250.829 122.576 250.448 123.376C250.067 124.138 249.857 125.129 249.819 126.348C249.781 126.844 249.762 127.778 249.762 129.149C249.762 130.483 249.762 132.046 249.762 133.837C249.762 135.59 249.762 137.324 249.762 139.039C249.8 140.754 249.819 142.221 249.819 143.44C249.819 144.66 249.819 145.384 249.819 145.613C249.781 146.756 249.895 147.728 250.162 148.528C250.429 149.328 250.715 149.805 251.02 149.957C250.067 150.681 249.114 151.291 248.161 151.786C247.247 152.282 245.932 152.644 244.217 152.872C243.569 152.949 242.845 152.758 242.045 152.301C241.245 151.882 240.54 151.215 239.93 150.3C239.358 149.347 239.053 148.185 239.015 146.813C239.015 145.441 238.996 143.688 238.958 141.554C238.958 139.382 238.958 137.038 238.958 134.523C238.996 131.97 238.996 129.416 238.958 126.863C238.92 125.758 238.748 124.71 238.444 123.719C238.177 122.728 237.72 121.871 237.072 121.147C236.424 120.384 235.566 119.756 234.499 119.26C233.432 118.765 232.098 118.441 230.498 118.288C230.079 118.25 229.507 118.136 228.783 117.945C228.059 117.755 227.563 117.564 227.297 117.374C226.877 117.069 226.534 116.497 226.268 115.659C226.001 114.782 225.791 113.83 225.639 112.801C225.486 111.734 225.372 110.686 225.296 109.657C225.258 108.628 225.258 107.789 225.296 107.141C225.448 107.179 225.868 107.237 226.554 107.313C227.278 107.389 228.135 107.465 229.126 107.542C230.117 107.58 231.089 107.618 232.041 107.656C232.727 107.694 233.642 107.732 234.785 107.77C235.966 107.808 237.224 107.846 238.558 107.884C239.892 107.923 241.149 107.961 242.331 107.999C243.512 107.999 244.484 107.999 245.246 107.999C246.275 107.961 247.475 107.923 248.847 107.884C250.219 107.846 251.534 107.808 252.792 107.77C254.087 107.694 255.116 107.618 255.879 107.542C256.641 107.465 257.441 107.37 258.279 107.256C259.156 107.103 259.918 106.951 260.566 106.798C261.252 106.608 261.709 106.436 261.938 106.284Z" fill="#EBEBF0"/>
<path d="M229.88 93.7305C228.892 93.3506 227.942 92.8567 227.03 92.2488C226.194 91.6409 225.7 90.805 225.548 89.7412C225.472 88.6774 225.776 87.4236 226.46 85.9798C227.22 84.4601 227.942 83.3583 228.626 82.6744C229.31 81.9145 230.45 80.6607 232.045 78.913C233.717 77.1653 235.047 75.5695 236.035 74.1258C237.099 72.606 238.086 71.1243 238.998 69.6805C239.91 68.2368 240.404 66.565 240.48 64.6653C240.632 62.6897 239.986 61.2079 238.542 60.2201C237.099 59.1563 235.731 58.3204 234.439 57.7125C233.983 57.5605 232.805 57.0666 230.906 56.2307C229.006 55.3189 226.878 54.407 224.523 53.4952C223.307 52.9633 222.091 52.1654 220.875 51.1016C219.735 50.0378 219.089 48.632 218.938 46.8843C218.71 44.5287 219.127 42.591 220.191 41.0712C221.331 39.5515 222.775 38.4117 224.523 37.6518C224.827 37.4998 225.624 37.1959 226.916 36.7399C228.284 36.284 229.842 35.7901 231.589 35.2582C233.337 34.6503 234.971 34.0424 236.491 33.4345C238.086 32.7506 239.264 32.1807 240.024 31.7248C241.088 31.0409 242.114 30.281 243.102 29.4451C244.165 28.5333 244.925 27.3935 245.381 26.0257C245.837 24.6579 245.799 22.9862 245.267 21.0105C244.963 19.7947 243.899 18.9589 242.076 18.503C240.328 18.047 238.694 17.7811 237.174 17.7051C236.415 17.6291 235.085 17.6291 233.185 17.7051C231.361 17.7051 228.892 18.009 225.776 18.6169C224.485 18.8449 222.775 18.7309 220.647 18.275C218.596 17.8191 216.544 16.9072 214.492 15.5394C212.517 14.1717 210.959 12.272 209.819 9.84037C212.175 8.32063 214.264 6.95285 216.088 5.73706C217.912 4.44527 219.811 3.38144 221.787 2.54558C223.763 1.63373 226.08 0.987838 228.74 0.607901C235.047 -0.303951 240.518 -0.189969 245.153 0.949847C249.864 2.01367 253.74 3.6474 256.779 5.85104C259.743 7.9027 261.832 10.1443 263.048 12.5759C264.264 15.0075 264.91 17.4391 264.986 19.8707C265.214 23.8981 264.644 27.4315 263.276 30.471C261.984 33.5105 260.123 36.132 257.691 38.3357C257.235 38.7156 256.627 39.2855 255.867 40.0454C255.108 40.8053 254.424 41.5272 253.816 42.211C253.284 42.8189 252.942 43.3889 252.79 43.9208C252.714 44.4527 252.714 45.0606 252.79 45.7445C252.942 47.0362 253.474 48.1381 254.386 49.0499C255.298 49.8858 256.323 50.7596 257.463 51.6715C258.603 52.5833 259.591 53.7231 260.427 55.0909C261.263 56.4587 261.604 58.2824 261.452 60.562C261.377 63.7535 260.769 66.907 259.629 70.0225C258.489 73.1379 257.045 76.1015 255.298 78.913C253.626 81.6485 251.878 84.1561 250.054 86.4358C248.307 88.6394 246.673 90.4251 245.153 91.7929C244.165 92.7047 242.304 93.5406 239.568 94.3005C236.909 95.1363 233.679 94.9464 229.88 93.7305Z" fill="#EBEBF0"/>
<path d="M193.092 89.9691C191.649 90.729 189.635 91.071 187.051 90.995C184.544 90.995 181.922 90.615 179.187 89.8552C178.731 89.7032 177.591 89.3612 175.767 88.8293C174.019 88.2974 171.968 87.6895 169.612 87.0056C167.333 86.3218 165.091 85.6379 162.887 84.954C160.76 84.1941 159.05 83.5862 157.758 83.1303C154.111 81.7625 151.375 80.5087 149.551 79.3689C147.804 78.2291 146.664 77.0893 146.132 75.9495C145.676 74.7337 145.448 73.4039 145.448 71.9601C145.524 70.6683 145.904 69.3385 146.588 67.9708C147.348 66.527 148.678 64.6273 150.577 62.2717C151.033 61.6638 151.907 60.676 153.199 59.3082C154.491 57.9404 155.896 56.4207 157.416 54.749C159.012 53.0012 160.532 51.2915 161.975 49.6198C163.419 47.8721 164.521 46.3903 165.281 45.1745C166.117 43.9587 167.143 42.515 168.358 40.8432C169.574 39.1715 170.714 37.4238 171.778 35.6001C172.842 33.7764 173.601 31.9907 174.057 30.243C174.513 28.4953 174.399 26.9375 173.715 25.5698C173.184 24.5059 171.93 24.012 169.954 24.088C167.978 24.088 166.041 24.7339 164.141 26.0257C162.317 27.2415 160.76 28.2673 159.468 29.1032C158.176 29.8631 156.504 30.319 154.453 30.471C151.945 30.6989 149.589 30.433 147.386 29.6731C145.258 28.8372 143.51 28.0394 142.143 27.2795C143.358 22.4923 145.144 18.6169 147.5 15.6534C149.931 12.6899 152.629 10.4103 155.592 8.81453C158.556 7.21879 161.443 6.19296 164.255 5.73703C169.726 4.7492 174.741 4.97716 179.301 6.42092C183.86 7.86468 187.355 9.68838 189.787 11.892C192.294 14.2476 194.232 17.0592 195.6 20.3266C197.044 23.5181 197.652 26.7096 197.424 29.9011C197.12 33.1685 195.942 36.7019 193.89 40.5013C191.914 44.2247 189.293 48.214 186.025 52.4693C185.645 52.9253 185.038 53.7231 184.202 54.8629C183.366 55.9268 182.454 57.1046 181.466 58.3964C180.554 59.6881 179.718 60.9039 178.959 62.0438C178.199 63.1076 177.705 63.8295 177.477 64.2094C175.805 67.3249 176.223 69.4145 178.731 70.4784C179.415 70.7063 180.516 71.0103 182.036 71.3902C183.556 71.7701 185.228 72.1501 187.051 72.53C188.875 72.834 190.623 73.1379 192.294 73.4419C194.042 73.6698 195.448 73.8218 196.512 73.8978C197.803 73.9738 198.867 74.6577 199.703 75.9495C200.539 77.2412 200.881 78.571 200.729 79.9388C200.653 81.3066 200.007 83.0163 198.791 85.0679C197.576 87.1196 195.676 88.7533 193.092 89.9691Z" fill="#EBEBF0"/>
<path d="M102.213 88.2595C98.4134 88.3354 94.576 87.8415 90.7006 86.7777C86.8253 85.7139 83.7858 84.3461 81.5821 82.6744C79.4545 81.0787 77.1749 78.761 74.7433 75.7215C72.3117 72.682 70.488 68.6167 69.2722 63.5255C67.9804 57.9784 67.4485 52.8113 67.6764 48.0241C67.9804 43.1609 68.7023 38.8296 69.8421 35.0302C70.9819 31.1549 72.2357 27.9254 73.6035 25.3418C75.5791 21.4665 78.2767 17.6671 81.6961 13.9437C85.1916 10.2203 89.7888 7.44678 95.4879 5.62308C99.1353 4.40728 102.745 3.95136 106.316 4.25531C109.963 4.55926 113.155 5.24315 115.89 6.30697C118.702 7.3708 120.64 8.43462 121.704 9.49844C125.275 12.6899 127.935 16.6033 129.682 21.2385C131.506 25.8737 132.57 30.8889 132.874 36.284C133.178 41.6791 132.798 47.1882 131.734 52.8113C130.062 61.6258 127.251 68.8827 123.299 74.5817C119.348 80.2048 114.865 84.0422 109.849 86.0938C107.722 87.0057 106.24 87.5756 105.404 87.8035C104.568 87.9555 103.505 88.1075 102.213 88.2595ZM97.1976 65.5772C100.541 65.8811 103.277 65.2353 105.404 63.6395C107.532 61.9678 109.242 59.6122 110.533 56.5727C111.825 53.4572 112.889 49.9998 113.725 46.2004C114.561 42.325 114.713 38.6776 114.181 35.2582C113.649 31.8388 112.357 29.0652 110.305 26.9376C108.33 24.7339 105.518 23.6321 101.871 23.6321C98.2994 23.7081 95.4499 25.2278 93.3222 28.1914C91.1946 31.1549 89.6748 35.7141 88.763 41.8691C88.459 44.1487 88.269 46.6183 88.1931 49.2779C88.1931 51.8615 88.459 54.369 88.9909 56.8006C89.5228 59.2322 90.4347 61.2459 91.7265 62.8416C93.0943 64.4374 94.918 65.3492 97.1976 65.5772Z" fill="#EBEBF0"/>
<path d="M50.9497 89.9691C49.5059 90.729 47.4923 91.071 44.9087 90.995C42.4011 90.995 39.7795 90.615 37.044 89.8552C36.5881 89.7032 35.4482 89.3612 33.6245 88.8293C31.8768 88.2974 29.8252 87.6895 27.4696 87.0056C25.1899 86.3218 22.9483 85.6379 20.7447 84.954C18.617 84.1941 16.9073 83.5862 15.6155 83.1303C11.9681 81.7625 9.23257 80.5087 7.40887 79.3689C5.66116 78.2291 4.52135 77.0893 3.98943 75.9495C3.53351 74.7337 3.30555 73.4039 3.30555 71.9601C3.38153 70.6683 3.76147 69.3385 4.44536 67.9708C5.20523 66.527 6.53501 64.6273 8.4347 62.2717C8.89062 61.6638 9.76448 60.676 11.0563 59.3082C12.3481 57.9404 13.7538 56.4207 15.2736 54.749C16.8693 53.0012 18.3891 51.2915 19.8328 49.6198C21.2766 47.8721 22.3784 46.3903 23.1383 45.1745C23.9741 43.9587 25 42.515 26.2158 40.8432C27.4316 39.1715 28.5714 37.4238 29.6352 35.6001C30.699 33.7764 31.4589 31.9907 31.9148 30.243C32.3708 28.4953 32.2568 26.9375 31.5729 25.5698C31.041 24.5059 29.7872 24.012 27.8115 24.088C25.8358 24.088 23.8982 24.7339 21.9985 26.0257C20.1748 27.2415 18.617 28.2673 17.3252 29.1032C16.0334 29.8631 14.3617 30.319 12.3101 30.471C9.80247 30.6989 7.44686 30.433 5.24323 29.6731C3.11558 28.8372 1.36787 28.0394 9.15527e-05 27.2795C1.21589 22.4923 3.0016 18.6169 5.35721 15.6534C7.78881 12.6899 10.4864 10.4103 13.4499 8.81453C16.4134 7.21879 19.3009 6.19296 22.1124 5.73703C27.5835 4.7492 32.5987 4.97716 37.158 6.42092C41.7172 7.86468 45.2126 9.68838 47.6442 11.892C50.1518 14.2476 52.0895 17.0592 53.4573 20.3266C54.901 23.5181 55.5089 26.7096 55.281 29.9011C54.977 33.1685 53.7992 36.7019 51.7476 40.5013C49.7719 44.2247 47.1503 48.214 43.8829 52.4693C43.5029 52.9253 42.895 53.7231 42.0592 54.8629C41.2233 55.9268 40.3114 57.1046 39.3236 58.3964C38.4118 59.6881 37.5759 60.9039 36.816 62.0438C36.0561 63.1076 35.5622 63.8295 35.3343 64.2094C33.6625 67.3249 34.0805 69.4145 36.5881 70.4784C37.2719 70.7063 38.3738 71.0103 39.8935 71.3902C41.4133 71.7701 43.085 72.1501 44.9087 72.53C46.7324 72.834 48.4801 73.1379 50.1518 73.4419C51.8995 73.6698 53.3053 73.8218 54.3691 73.8978C55.6609 73.9738 56.7247 74.6577 57.5606 75.9495C58.3965 77.2412 58.7384 78.571 58.5864 79.9388C58.5104 81.3066 57.8646 83.0163 56.6488 85.0679C55.433 87.1196 53.5333 88.7533 50.9497 89.9691Z" fill="#EBEBF0"/>
</svg>
