<svg width="43" height="49" viewBox="0 0 43 49" fill="none" xmlns="http://www.w3.org/2000/svg">
<path d="M13.8989 3.48052C6.47712 0.533972 7.27494 23.5117 7.4915 27.3966C8.19325 39.9853 16.05 18.8472 17.191 16.1114C20.2178 8.85355 19.3502 -4.45951 14.0161 8.33087C12.5946 11.7393 6.74622 37.2513 14.3749 36.8322C21.3065 36.4515 28.0127 14.5211 28.1644 8.32817C28.4871 -4.85255 20.2877 3.46227 17.9723 9.10676C14.6746 17.146 11.7649 25.2054 12.2187 34.5906C12.3471 37.2449 14.0593 40.8696 16.5649 38.7075C24.4569 31.8976 35.3971 19.562 31.2512 6.62776C28.7759 -1.09438 21.8066 9.10369 20.3859 11.4436C18.8316 14.0036 7.10264 45.4218 16.4109 46.4886C24.2536 47.3875 38.313 25.0241 38.7884 17.6312C39.5793 5.33367 31.2933 8.36498 27.735 15.4866C24.0801 22.8015 20.815 32.2237 22.1534 41.2708C22.412 43.0187 23.7173 48.7139 26.2356 47.1608C34.0106 42.3661 45.1886 26.7317 40.871 15.6306C33.1022 -4.34412 15.7247 28.165 21.8612 40.8313C24.4161 46.1048 31.2245 35.1256 31.8134 32.931C33.524 26.5561 29.0225 13.6648 21.9068 13.3556C13.2157 12.9779 10.3087 20.6843 12.8483 29.9453C15.3243 38.9742 18.6198 35.2535 22.2687 29.5918C25.9591 23.8656 24.7683 15.6284 17.4808 14.4188C8.68776 12.9593 2.40125 30.0168 2.67331 38.0947C2.92339 45.52 8.43759 44.7162 12.2091 41.1701C20.5967 33.2841 34.2282 20.7699 22.6292 7.34743C8.0259 -9.55149 -5.41135 24.8122 4.82781 38.9149C11.7631 48.4671 19.8756 28.1561 21.266 23.159C21.8561 21.0382 21.7748 -2.96643 17.0907 3.52387C11.7419 10.9352 7.80457 31.1604 14.4387 40.1C17.2195 43.8471 20.9204 33.4859 21.3953 31.116C21.568 30.2539 21.8418 24.8786 19.6742 26.6909C16.7708 29.1183 15.9695 36.0721 15.5882 39.9093C14.8205 47.6346 15.515 49.218 20.7432 46.0775" stroke="#13C299" stroke-width="2" stroke-linecap="round"/>
</svg>
