<svg width="52" height="48" viewBox="0 0 52 48" fill="none" xmlns="http://www.w3.org/2000/svg">
<path d="M21.8913 4.89993C14.8758 1.74933 12.2089 21.846 11.8401 25.2501C10.645 36.2811 21.7337 18.4666 23.2936 16.1706C27.4318 10.0797 28.5695 -1.59581 21.2768 9.13809C19.3334 11.9985 9.60318 33.784 17.3347 34.0164C24.3597 34.2275 34.4115 15.632 35.4989 10.2443C37.8131 -1.22259 28.3159 5.3846 25.1364 10.1246C20.6079 16.8755 16.4664 23.6745 15.5058 31.893C15.2341 34.2173 16.4079 37.5118 19.253 35.823C28.214 30.5039 41.0732 20.6057 38.8584 9.00359C37.5361 2.07677 28.9911 10.4223 27.2098 12.3511C25.2609 14.4614 8.72798 40.9358 17.9234 42.5952C25.6711 43.9935 43.1796 25.5966 44.7736 19.188C47.4251 8.52782 38.6385 10.5216 33.9866 16.452C29.2084 22.5435 24.5039 30.5028 24.4835 38.4958C24.4795 40.04 24.9319 45.1079 27.6977 43.9511C36.2368 40.3798 49.8331 27.6241 47.169 17.6069C42.3754 -0.417678 19.9999 26.5652 24.2561 38.0897C26.0281 42.8878 34.5294 33.8485 35.4526 31.9813C38.1345 26.557 35.5557 14.9645 28.4499 14.1374C19.7707 13.1271 15.6852 19.6185 16.8399 27.8921C17.9656 35.9583 21.84 32.9725 26.3625 28.322C30.9365 23.6185 30.9831 16.3433 23.8404 14.7176C15.2221 12.7561 6.32786 27.1358 5.38183 34.2002C4.51222 40.6939 10.1764 40.4251 14.5028 37.6289C24.1244 31.4103 39.7159 21.5673 30.083 8.95551C17.9552 -6.92276 -0.739534 21.9858 7.42368 35.0842C12.9529 43.9561 24.1738 26.8827 26.3257 22.6347C27.2391 20.8318 30.7813 -0.10402 25.0931 5.18782C18.5976 11.2306 11.5866 28.5564 16.9055 36.8705C19.135 40.3555 24.4193 31.6116 25.2544 29.5825C25.5582 28.8444 26.645 24.1791 24.1925 25.5894C20.9076 27.4784 19.0523 33.4785 18.0897 36.7943C16.1518 43.4698 16.6109 44.9048 22.3403 42.5762" stroke="#13C299" stroke-width="4.12503" stroke-linecap="round"/>
<path d="M15.9496 20.5871C17.5684 21.4143 17.2267 16.8237 16.0545 17.0965C13.9751 17.5803 14.7085 21.5567 14.9598 21.2098C15.8479 19.9843 16.0933 16.7945 16.6269 19.5901C16.9679 21.3764 16.9899 17.6019 16.547 19.1716" stroke="#27272A" stroke-width="4.12503" stroke-linecap="round"/>
<path d="M30.6476 15.198C32.2664 16.0252 31.9247 11.4347 30.7525 11.7074C28.6731 12.1912 29.4065 16.1677 29.6578 15.8208C30.5459 14.5952 30.7913 11.4055 31.3249 14.2011C31.6659 15.9873 31.6879 12.2129 31.245 13.7825" stroke="#27272A" stroke-width="4.12503" stroke-linecap="round"/>
<path d="M18.3556 27.1118C19.1704 27.0593 21.0432 28.5244 21.9591 28.8264C23.3676 29.2908 24.4493 29.0062 25.8729 28.7345C27.9942 28.3295 30.809 25.9892 30.3365 23.5142" stroke="#27272A" stroke-width="4.12503" stroke-linecap="round"/>
</svg>
